HIERARCHY
ROOT ui
{
	 OFFSET 0 0 0
	 CHANNELS 3 XPosition YPosition Z Position
	 EndSite
	 {
	 OFFSET 0 -1 0
	 }
}
ROOT li
{
	 OFFSET 0 0 0
	 CHANNELS 3 XPosition YPosition Z Position
	 EndSite
	 {
	 OFFSET 0 -1 0
	 }
}
ROOT ul
{
	 OFFSET 0 0 0
	 CHANNELS 3 XPosition YPosition Z Position
	 EndSite
	 {
	 OFFSET 0 -1 0
	 }
}
ROOT ll
{
	 OFFSET 0 0 0
	 CHANNELS 3 XPosition YPosition Z Position
	 EndSite
	 {
	 OFFSET 0 -1 0
	 }
}
ROOT tt
{
	 OFFSET 0 0 0
	 CHANNELS 3 XPosition YPosition Z Position
	 EndSite
	 {
	 OFFSET 0 -1 0
	 }
}
ROOT tb
{
	 OFFSET 0 0 0
	 CHANNELS 3 XPosition YPosition Z Position
	 EndSite
	 {
	 OFFSET 0 -1 0
	 }
}
ROOT td
{
	 OFFSET 0 0 0
	 CHANNELS 3 XPosition YPosition Z Position
	 EndSite
	 {
	 OFFSET 0 -1 0
	 }
}
ROOT v
{
	 OFFSET 0 0 0
	 CHANNELS 3 XPosition YPosition Z Position
	 EndSite
	 {
	 OFFSET 0 -1 0
	 }
}
ROOT bn
{
	 OFFSET 0 0 0
	 CHANNELS 3 XPosition YPosition Z Position
	 EndSite
	 {
	 OFFSET 0 -1 0
	 }
}
MOTION
Frames: 32
Frame Time: 0.002
0.00502474594116211	-6.839879751205445E-4	0		0.5276889038085938	-2.41805078125	0		-1.1064830322265624	0.0803739242553711	0		-0.783030517578125	-2.684735107421875	0		1.3776864013671875	-0.6884120483398437	0		3.220338134765625	-0.43410476684570315	0		4.7235107421875	-0.41164703369140626	0		5.600138671875	0.10092916107177734	0		-0.30961428833007815	5.88543212890625	0		
-0.07015396881103515	0.0034318339824676515	0		0.48531884765625	-2.419180908203125	0		-1.1416572265625	0.08430610656738281	0		-0.7694512939453125	-2.691138427734375	0		1.385390380859375	-0.6959183959960937	0		3.221103759765625	-0.434687255859375	0		4.72035498046875	-0.400302734375	0		5.6078134765625	0.09436141204833984	0		-0.2733962707519531	5.8908564453125	0		
0.010641039848327637	0.0015478830337524415	0		0.5080308837890625	-2.408726318359375	0		-1.1358228759765625	0.08797974395751954	0		-0.812736572265625	-2.677172119140625	0		1.394198486328125	-0.6884332275390626	0		3.22187744140625	-0.4352727966308594	0		4.731130859375	-0.40105328369140625	0		5.6041416015625	0.11045015716552735	0		-0.27219955444335936	5.89050439453125	0		
-0.03854239273071289	0.005510334968566895	0		0.5066461181640625	-2.411111083984375	0		-1.1400538330078125	0.08372431945800782	0		-0.7401736450195312	-2.684953369140625	0		1.3729814453125	-0.68274658203125	0		3.2226376953125	-0.4358521728515625	0		4.7249326171875	-0.3956878051757812	0		5.60758056640625	0.12124784851074219	0		-0.27101678466796875	5.89015869140625	0		
0.012188857078552245	8.28540027141571E-4	0		0.5052261962890625	-2.41448486328125	0		-1.1452567138671874	0.088485107421875	0		-0.8145702514648437	-2.681762451171875	0		1.3736949462890624	-0.6831906127929688	0		3.25739306640625	-0.43264276123046874	0		4.7295859375	-0.40837844848632815	0		5.612357421875	0.10783018493652344	0		-0.26987103271484375	5.88982275390625	0		
-0.04008866882324219	0.0018418560028076172	0		0.5057863464355469	-2.41485693359375	0		-1.0985709228515625	0.0829115219116211	0		-0.7540219116210938	-2.68145068359375	0		1.38827197265625	-0.69771142578125	0		3.218100830078125	-0.42992385864257815	0		4.725220703125	-0.41698715209960935	0		5.60572509765625	0.10674706268310546	0		-0.26877978515625	5.8895	0		
0.013564488410949708	1.643809974193573E-4	0		0.48825845336914064	-2.421089599609375	0		-1.177903076171875	0.08319554901123047	0		-0.8035789184570312	-2.689389892578125	0		1.3888900146484375	-0.6981197509765625	0		3.220654541015625	-0.44245822143554686	0		4.72395068359375	-0.4035880126953125	0		5.60753173828125	0.07616825103759765	0		-0.3018022155761719	5.88242333984375	0		
-0.05877804183959961	0.0083563871383667	0		0.5217503662109375	-2.41664599609375	0		-1.1322706298828125	0.08665573120117187	0		-0.76011669921875	-2.686938232421875	0		1.39750439453125	-0.6905595092773438	0		3.23233154296875	-0.4280264587402344	0		4.7225146484375	-0.4061561279296875	0		5.6166162109375	0.11299925231933594	0		-0.24974644470214843	5.89779052734375	0		
0.009740612983703613	0.004611790180206299	0		0.5111966857910156	-2.4108818359375	0		-1.136752685546875	0.08247164916992188	0		-0.8196158447265625	-2.6707666015625	0		1.38299951171875	-0.6918168334960938	0		3.21982763671875	-0.4314002990722656	0		4.73504541015625	-0.404784912109375	0		5.60698291015625	0.10349203491210937	0		-0.2659369201660156	5.8886396484375	0		
-0.03780248260498047	6.830800175666809E-4	0		0.5075174560546875	-2.41614111328125	0		-1.09626611328125	0.081995849609375	0		-0.7503381958007812	-2.68045947265625	0		1.3764945068359375	-0.6851018676757813	0		3.220287841796875	-0.4318309326171875	0		4.72550732421875	-0.4052268981933594	0		5.6073193359375	0.10253652191162109	0		-0.265141357421875	5.8883935546875	0		
0.015623771667480468	-9.217810034751892E-4	0		0.5078306274414063	-2.416404541015625	0		-1.1358265380859376	0.08209113311767578	0		-0.7880304565429688	-2.6793955078125	0		1.37689453125	-0.6854089965820312	0		3.23760986328125	-0.4453486328125	0		4.7228798828125	-0.4116811828613281	0		5.60762109375	0.10164575958251953	0		-0.2994521484375	5.88241259765625	0		
0.016020658493041993	-0.0011395020484924316	0		0.5081126708984375	-2.416645751953125	0		-1.0954267578125	0.08164796447753907	0		-0.77580322265625	-2.685658935546875	0		1.3911605224609376	-0.6997891845703125	0		3.2180419921875	-0.43757962036132814	0		4.7312431640625	-0.4141786804199219	0		5.61212646484375	0.08344458770751953	0		-0.33381674194335936	5.876455078125	0		
0.02343971061706543	0.00561360502243042	0		0.494367431640625	-2.4177666015625	0		-1.1300240478515624	0.08574710845947266	0		-0.7605823974609375	-2.68992626953125	0		1.38857666015625	-0.6890274047851562	0		3.233385009765625	-0.43902642822265625	0		4.729693359375	-0.40057391357421873	0		5.61104150390625	0.11210938262939453	0		-0.26210726928710937	5.88677294921875	0		
0.01674031639099121	-0.0015148160457611084	0		0.5376217041015625	-2.41726953125	0		-1.0946998291015626	0.08136922454833985	0		-0.7753168334960937	-2.68596533203125	0		1.3779190673828126	-0.68618505859375	0		3.22770947265625	-0.44029693603515624	0		4.7319267578125	-0.4149637145996094	0		5.608396484375	0.09934099578857422	0		-0.2625030212402344	5.88761376953125	0		
0.017072134017944336	-0.0016745660305023194	0		0.48188247680664065	-2.41405029296875	0		-1.13436376953125	0.08153787994384766	0		-0.7490543212890625	-2.68127978515625	0		1.378224365234375	-0.686397705078125	0		3.258016357421875	-0.44179534912109375	0		4.73224267578125	-0.41530667114257813	0		5.608626953125	0.0986950454711914	0		-0.2619423828125	5.88746484375	0		
0.017383493423461915	-0.0018174200057983398	0		0.5070717163085937	-2.419388671875	0		-1.10405029296875	0.08122092437744141	0		-0.7768875122070312	-2.688194580078125	0		1.3785113525390624	-0.6865888671875	0		3.215298828125	-0.4437450561523438	0		4.7375966796875	-0.4076529541015625	0		5.60595458984375	0.08605009460449219	0		-0.26142193603515623	5.88733154296875	0		
-0.03532309341430664	-5.629169940948487E-4	0		0.49327215576171873	-2.420430419921875	0		-1.1737608642578126	0.08163379669189454	0		-0.7637323608398437	-2.6943896484375	0		1.392673095703125	-0.7008599243164062	0		3.2155693359375	-0.4439746398925781	0		4.72281103515625	-0.41582318115234373	0		5.616158203125	0.09227095794677734	0		-0.2599553833007813	5.88620654296875	0		
0.02496986961364746	0.004892995834350586	0		0.5244674682617188	-2.418780029296875	0		-1.1225159912109375	0.08018762969970702	0		-0.80544189453125	-2.67817578125	0		1.4009617919921875	-0.6930692749023437	0		3.262857177734375	-0.4375181884765625	0		4.73609326171875	-0.4101642761230469	0		5.62346533203125	0.09167871856689454	0		-0.24347773742675782	5.89398681640625	0		
-0.03486073303222656	-7.69457995891571E-4	0		0.5116461791992187	-2.41479638671875	0		-1.0932962646484374	0.08090888214111328	0		-0.7373807373046875	-2.6897451171875	0		1.3791993408203125	-0.6870428466796875	0		3.2200439453125	-0.4393868408203125	0		4.72830859375	-0.40832455444335936	0		5.612251953125	0.10876600646972656	0		-0.25917337036132815	5.88601220703125	0		
0.018297037124633788	-0.0022382910251617432	0		0.5097357482910156	-2.41787744140625	0		-1.0931279296875	0.08084976196289062	0		-0.823193359375	-2.67818701171875	0		1.37935009765625	-0.6871583862304688	0		3.23215625	-0.44563153076171874	0		4.74036376953125	-0.4226034545898438	0		5.60658837890625	0.08428395843505859	0		-0.25986529541015624	5.88694140625	0		
-0.06157454299926758	-7.272989749908447E-4	0		0.5098050537109375	-2.417960205078125	0		-1.0970362548828125	0.07682926940917968	0		-0.7501677856445312	-2.68377490234375	0		1.3933525390625	-0.7013607788085937	0		3.22222265625	-0.4516971740722656	0		4.72857666015625	-0.40868603515625	0		5.606669921875	0.08396277618408203	0		-0.29466799926757814	5.8811298828125	0		
0.018488571166992186	-0.0023727290630340576	0		0.5187734375	-2.426096923828125	0		-1.1329320068359374	0.08105166625976562	0		-0.800202880859375	-2.691456298828125	0		1.3864632568359374	-0.6943973999023437	0		3.247330078125	-0.44600222778320314	0		4.7335830078125	-0.41687277221679686	0		5.616724609375	0.09041976165771484	0		-0.29349215698242187	5.88006640625	0		
-0.03144919586181641	0.0019421709775924684	0		0.5138582763671875	-2.413120849609375	0		-1.127869873046875	0.08498332214355468	0		-0.7331758422851562	-2.685985107421875	0		1.3974605712890624	-0.6975533447265625	0		3.216362060546875	-0.4448826904296875	0		4.73665087890625	-0.41102847290039063	0		5.612517578125	0.10754051971435546	0		-0.2593079528808594	5.88677099609375	0		
0.02154897689819336	0.001511652946472168	0		0.5118042907714844	-2.415156005859375	0		-1.092899169921875	0.08070286560058594	0		-0.774225830078125	-2.68671337890625	0		1.38647119140625	-0.6945367431640626	0		3.262345703125	-0.4463141174316406	0		4.743599609375	-0.41719775390625	0		5.61251416015625	0.10731452941894531	0		-0.2582207946777344	5.88572607421875	0		
0.018497243881225586	-0.0024989209175109864	0		0.5097236022949219	-2.418181396484375	0		-1.02988525390625	0.08522282409667968	0		-0.7393263549804687	-2.691991943359375	0		1.3794901123046874	-0.6875386352539062	0		3.235354248046875	-0.4411968994140625	0		4.72863037109375	-0.40919122314453127	0		5.60960595703125	0.09505620574951172	0		-0.2591473693847656	5.886705078125	0		
0.018461145401000977	-0.002523094892501831	0		0.5096535034179688	-2.41821240234375	0		-1.136983642578125	0.07700300598144531	0		-0.78631787109375	-2.680658935546875	0		1.386392578125	-0.6946334228515625	0		3.24132666015625	-0.4393106689453125	0		4.74048486328125	-0.42336981201171875	0		5.609578125	0.09488052368164063	0		-0.2941439208984375	5.880943359375	0		
-0.034574722290039064	-0.0011473629474639893	0		0.5185174560546875	-2.42630126953125	0		-1.132997802734375	0.08097269439697266	0		-0.765516845703125	-2.696819091796875	0		1.3932867431640625	-0.701718994140625	0		3.216232421875	-0.4451843566894531	0		4.73347900390625	-0.41739669799804685	0		5.61377099609375	0.07735078430175782	0		-0.29212557983398435	5.87891650390625	0		
0.02541835403442383	0.004401331901550293	0		0.4975123901367188	-2.416159912109375	0		-1.1280169677734375	0.08494216918945313	0		-0.7965324096679688	-2.687587646484375	0		1.4043243408203125	-0.6888253784179688	0		3.269235107421875	-0.43762405395507814	0		4.7424091796875	-0.41952914428710936	0		5.61239697265625	0.10665472412109375	0		-0.24199293518066406	5.89354248046875	0		
0.025367130279541017	0.004401957988739014	0		0.5114408569335938	-2.415268310546875	0		-1.093097900390625	0.08069644927978516	0		-0.784547607421875	-2.6786669921875	0		1.393169189453125	-0.7017584228515625	0		3.211173095703125	-0.43823004150390626	0		4.73641259765625	-0.4115375671386719	0		5.61235888671875	0.10654836273193359	0		-0.2580364685058594	5.88566455078125	0		
0.018263565063476563	-0.002537425994873047	0		0.48236544799804687	-2.415049560546875	0		-1.1331478271484374	0.08101315307617188	0		-0.7866412963867188	-2.680635498046875	0		1.3931102294921875	-0.7017637939453125	0		3.223079345703125	-0.4433426818847656	0		4.73837158203125	-0.4095915222167969	0		5.60943017578125	0.09440879821777344	0		-0.25802896118164065	5.88567626953125	0		
0.018207307815551757	-0.002522066116333008	0		0.5072501220703125	-2.420223876953125	0		-1.0932044677734376	0.08074131774902343	0		-0.778795654296875	-2.690672119140625	0		1.37915234375	-0.6876568603515625	0		3.21600439453125	-0.44530340576171873	0		4.73325244140625	-0.4175802917480469	0		5.60649853515625	0.08229351806640625	0		-0.25803341674804686	5.88569384765625	0		
-0.03485257339477539	-0.0011064740419387817	0		0.4842159423828125	-2.413035400390625	0		-1.1332716064453126	0.08106854248046876	0		-0.8128538818359375	-2.68639208984375	0		1.392973876953125	-0.7017495727539063	0		3.237939208984375	-0.4444698181152344	0		4.73812109375	-0.42563131713867186	0		5.61222802734375	0.10637543487548828	0		-0.25805810546875	5.88571728515625	0		
